<mxfile host="app.diagrams.net" modified="2020-11-05T06:59:53.829Z" agent="5.0 (Macintosh; Intel Mac OS X 10_15_7) AppleWebKit/537.36 (KHTML, like Gecko) Chrome/86.0.4240.183 Safari/537.36" etag="SnldVnsqmMut9QQihPPc" version="13.3.0" type="github">
  <diagram id="PzehBPWjw76bpSJSbIX_" name="第 1 页">
    <mxGraphModel dx="946" dy="646" grid="1" gridSize="10" guides="1" tooltips="1" connect="1" arrows="1" fold="1" page="1" pageScale="1" pageWidth="827" pageHeight="1169" math="0" shadow="0">
      <root>
        <mxCell id="0" />
        <mxCell id="1" parent="0" />
        <mxCell id="7aWwnLWc4ZIoFV8uZZTq-1" value="user" style="shape=umlActor;verticalLabelPosition=bottom;labelBackgroundColor=#ffffff;verticalAlign=top;html=1;outlineConnect=0;" vertex="1" parent="1">
          <mxGeometry x="90" y="160" width="20" height="40" as="geometry" />
        </mxCell>
        <mxCell id="7aWwnLWc4ZIoFV8uZZTq-2" value="user" style="shape=umlActor;verticalLabelPosition=bottom;labelBackgroundColor=#ffffff;verticalAlign=top;html=1;outlineConnect=0;" vertex="1" parent="1">
          <mxGeometry x="90" y="260" width="20" height="40" as="geometry" />
        </mxCell>
        <mxCell id="7aWwnLWc4ZIoFV8uZZTq-3" value="MySql" style="shape=cylinder;whiteSpace=wrap;html=1;boundedLbl=1;backgroundOutline=1;fillColor=#d5e8d4;strokeColor=#82b366;" vertex="1" parent="1">
          <mxGeometry x="160" y="460" width="140" height="100" as="geometry" />
        </mxCell>
        <mxCell id="7aWwnLWc4ZIoFV8uZZTq-4" value="" style="group" vertex="1" connectable="0" parent="1">
          <mxGeometry x="570" y="220" width="180" height="180" as="geometry" />
        </mxCell>
        <mxCell id="7aWwnLWc4ZIoFV8uZZTq-5" value="" style="whiteSpace=wrap;html=1;aspect=fixed;fillColor=#f8cecc;strokeColor=#b85450;" vertex="1" parent="7aWwnLWc4ZIoFV8uZZTq-4">
          <mxGeometry width="180" height="180" as="geometry" />
        </mxCell>
        <mxCell id="7aWwnLWc4ZIoFV8uZZTq-6" value="副本1" style="shape=cylinder;whiteSpace=wrap;html=1;boundedLbl=1;backgroundOutline=1;fillColor=#e1d5e7;strokeColor=#9673a6;" vertex="1" parent="7aWwnLWc4ZIoFV8uZZTq-4">
          <mxGeometry y="100" width="60" height="80" as="geometry" />
        </mxCell>
        <mxCell id="7aWwnLWc4ZIoFV8uZZTq-7" value="副本2" style="shape=cylinder;whiteSpace=wrap;html=1;boundedLbl=1;backgroundOutline=1;fillColor=#e1d5e7;strokeColor=#9673a6;" vertex="1" parent="7aWwnLWc4ZIoFV8uZZTq-4">
          <mxGeometry x="60" y="100" width="60" height="80" as="geometry" />
        </mxCell>
        <mxCell id="7aWwnLWc4ZIoFV8uZZTq-8" value="副本3" style="shape=cylinder;whiteSpace=wrap;html=1;boundedLbl=1;backgroundOutline=1;fillColor=#e1d5e7;strokeColor=#9673a6;" vertex="1" parent="7aWwnLWc4ZIoFV8uZZTq-4">
          <mxGeometry x="120" y="100" width="60" height="80" as="geometry" />
        </mxCell>
        <mxCell id="7aWwnLWc4ZIoFV8uZZTq-9" value="分布式文件系统" style="text;html=1;strokeColor=none;fillColor=none;align=center;verticalAlign=middle;whiteSpace=wrap;rounded=0;" vertex="1" parent="7aWwnLWc4ZIoFV8uZZTq-4">
          <mxGeometry x="40" width="100" height="20" as="geometry" />
        </mxCell>
        <mxCell id="7aWwnLWc4ZIoFV8uZZTq-10" value="" style="group" vertex="1" connectable="0" parent="1">
          <mxGeometry x="260" y="140" width="320" height="220" as="geometry" />
        </mxCell>
        <mxCell id="7aWwnLWc4ZIoFV8uZZTq-11" value="" style="whiteSpace=wrap;html=1;aspect=fixed;align=center;fillColor=#fff2cc;strokeColor=#d6b656;" vertex="1" parent="7aWwnLWc4ZIoFV8uZZTq-10">
          <mxGeometry width="220" height="220" as="geometry" />
        </mxCell>
        <mxCell id="7aWwnLWc4ZIoFV8uZZTq-12" value="SQL解析器" style="shape=cylinder;whiteSpace=wrap;html=1;boundedLbl=1;backgroundOutline=1;fillColor=#ffe6cc;strokeColor=#d79b00;" vertex="1" parent="7aWwnLWc4ZIoFV8uZZTq-10">
          <mxGeometry y="140" width="70" height="80" as="geometry" />
        </mxCell>
        <mxCell id="7aWwnLWc4ZIoFV8uZZTq-13" value="查询引擎" style="shape=cylinder;whiteSpace=wrap;html=1;boundedLbl=1;backgroundOutline=1;fillColor=#ffe6cc;strokeColor=#d79b00;" vertex="1" parent="7aWwnLWc4ZIoFV8uZZTq-10">
          <mxGeometry x="150" y="140" width="70" height="80" as="geometry" />
        </mxCell>
        <mxCell id="7aWwnLWc4ZIoFV8uZZTq-14" value="2、交由SQL解析器解析并组织SQL" style="text;html=1;strokeColor=none;fillColor=none;align=left;verticalAlign=middle;whiteSpace=wrap;rounded=0;" vertex="1" parent="7aWwnLWc4ZIoFV8uZZTq-10">
          <mxGeometry x="20" y="15" width="70" height="80" as="geometry" />
        </mxCell>
        <mxCell id="7aWwnLWc4ZIoFV8uZZTq-15" value="3、将最终的SQL交由查询引擎执行，并返回结果" style="text;html=1;strokeColor=none;fillColor=none;align=left;verticalAlign=middle;whiteSpace=wrap;rounded=0;" vertex="1" parent="7aWwnLWc4ZIoFV8uZZTq-10">
          <mxGeometry x="120" y="20" width="90" height="70" as="geometry" />
        </mxCell>
        <mxCell id="7aWwnLWc4ZIoFV8uZZTq-16" value="查询服务" style="text;html=1;strokeColor=none;fillColor=none;align=center;verticalAlign=middle;whiteSpace=wrap;rounded=0;" vertex="1" parent="7aWwnLWc4ZIoFV8uZZTq-10">
          <mxGeometry x="80" y="-5" width="50" height="20" as="geometry" />
        </mxCell>
        <mxCell id="7aWwnLWc4ZIoFV8uZZTq-17" style="edgeStyle=orthogonalEdgeStyle;rounded=0;orthogonalLoop=1;jettySize=auto;html=1;exitX=0.75;exitY=1;exitDx=0;exitDy=0;entryX=0.5;entryY=0;entryDx=0;entryDy=0;" edge="1" parent="7aWwnLWc4ZIoFV8uZZTq-10" source="7aWwnLWc4ZIoFV8uZZTq-16" target="7aWwnLWc4ZIoFV8uZZTq-13">
          <mxGeometry relative="1" as="geometry" />
        </mxCell>
        <mxCell id="7aWwnLWc4ZIoFV8uZZTq-18" style="edgeStyle=orthogonalEdgeStyle;rounded=0;orthogonalLoop=1;jettySize=auto;html=1;exitX=0.25;exitY=1;exitDx=0;exitDy=0;" edge="1" parent="7aWwnLWc4ZIoFV8uZZTq-10" source="7aWwnLWc4ZIoFV8uZZTq-16" target="7aWwnLWc4ZIoFV8uZZTq-12">
          <mxGeometry relative="1" as="geometry" />
        </mxCell>
        <mxCell id="7aWwnLWc4ZIoFV8uZZTq-19" value="池化HDFS连接" style="rounded=0;whiteSpace=wrap;html=1;" vertex="1" parent="7aWwnLWc4ZIoFV8uZZTq-10">
          <mxGeometry x="210" y="70" width="30" height="60" as="geometry" />
        </mxCell>
        <mxCell id="7aWwnLWc4ZIoFV8uZZTq-20" value="Hive数据源" style="shape=cylinder;whiteSpace=wrap;html=1;boundedLbl=1;backgroundOutline=1;fillColor=#dae8fc;strokeColor=#6c8ebf;" vertex="1" parent="1">
          <mxGeometry x="400" y="460" width="140" height="100" as="geometry" />
        </mxCell>
        <mxCell id="7aWwnLWc4ZIoFV8uZZTq-21" value="" style="endArrow=classic;html=1;entryX=0;entryY=0.186;entryDx=0;entryDy=0;entryPerimeter=0;" edge="1" parent="1" target="7aWwnLWc4ZIoFV8uZZTq-11">
          <mxGeometry width="50" height="50" relative="1" as="geometry">
            <mxPoint x="120" y="180" as="sourcePoint" />
            <mxPoint x="249" y="178" as="targetPoint" />
          </mxGeometry>
        </mxCell>
        <mxCell id="7aWwnLWc4ZIoFV8uZZTq-22" value="" style="endArrow=classic;html=1;entryX=0;entryY=0.634;entryDx=0;entryDy=0;entryPerimeter=0;" edge="1" parent="1" target="7aWwnLWc4ZIoFV8uZZTq-11">
          <mxGeometry width="50" height="50" relative="1" as="geometry">
            <mxPoint x="120" y="279.5" as="sourcePoint" />
            <mxPoint x="240" y="279.5" as="targetPoint" />
          </mxGeometry>
        </mxCell>
        <mxCell id="7aWwnLWc4ZIoFV8uZZTq-23" value="&lt;font style=&quot;font-size: 10px&quot;&gt;1、提交查询 条件及字段&lt;/font&gt;" style="text;html=1;strokeColor=none;fillColor=none;align=center;verticalAlign=middle;whiteSpace=wrap;rounded=0;" vertex="1" parent="1">
          <mxGeometry x="110" y="160" width="140" height="20" as="geometry" />
        </mxCell>
        <mxCell id="7aWwnLWc4ZIoFV8uZZTq-24" value="&lt;font style=&quot;font-size: 10px&quot;&gt;1、提交查询 条件及字段&lt;/font&gt;" style="text;html=1;strokeColor=none;fillColor=none;align=center;verticalAlign=middle;whiteSpace=wrap;rounded=0;" vertex="1" parent="1">
          <mxGeometry x="110" y="260" width="140" height="20" as="geometry" />
        </mxCell>
        <mxCell id="7aWwnLWc4ZIoFV8uZZTq-25" style="edgeStyle=orthogonalEdgeStyle;rounded=0;orthogonalLoop=1;jettySize=auto;html=1;exitX=1;exitY=0.25;exitDx=0;exitDy=0;" edge="1" parent="1" source="7aWwnLWc4ZIoFV8uZZTq-11" target="7aWwnLWc4ZIoFV8uZZTq-5">
          <mxGeometry relative="1" as="geometry">
            <Array as="points">
              <mxPoint x="550" y="195" />
              <mxPoint x="550" y="310" />
            </Array>
          </mxGeometry>
        </mxCell>
        <mxCell id="7aWwnLWc4ZIoFV8uZZTq-26" style="edgeStyle=orthogonalEdgeStyle;rounded=0;orthogonalLoop=1;jettySize=auto;html=1;exitX=0.25;exitY=1;exitDx=0;exitDy=0;" edge="1" parent="1" source="7aWwnLWc4ZIoFV8uZZTq-11" target="7aWwnLWc4ZIoFV8uZZTq-3">
          <mxGeometry relative="1" as="geometry" />
        </mxCell>
        <mxCell id="7aWwnLWc4ZIoFV8uZZTq-27" style="edgeStyle=orthogonalEdgeStyle;rounded=0;orthogonalLoop=1;jettySize=auto;html=1;exitX=0.5;exitY=1;exitDx=0;exitDy=0;" edge="1" parent="1" source="7aWwnLWc4ZIoFV8uZZTq-13" target="7aWwnLWc4ZIoFV8uZZTq-20">
          <mxGeometry relative="1" as="geometry" />
        </mxCell>
        <mxCell id="7aWwnLWc4ZIoFV8uZZTq-28" value="4、连接hive，多线程基于内存计算并聚合结果" style="text;html=1;strokeColor=none;fillColor=none;align=left;verticalAlign=middle;whiteSpace=wrap;rounded=0;" vertex="1" parent="1">
          <mxGeometry x="374" y="360" width="80" height="70" as="geometry" />
        </mxCell>
        <mxCell id="7aWwnLWc4ZIoFV8uZZTq-29" value="5、异步创建下载任务" style="text;html=1;strokeColor=none;fillColor=none;align=center;verticalAlign=middle;whiteSpace=wrap;rounded=0;" vertex="1" parent="1">
          <mxGeometry x="230" y="380" width="70" height="20" as="geometry" />
        </mxCell>
        <mxCell id="7aWwnLWc4ZIoFV8uZZTq-30" value="5、异步生成Excel文件并上传分布式文件系统" style="text;html=1;strokeColor=none;fillColor=none;align=center;verticalAlign=middle;whiteSpace=wrap;rounded=0;" vertex="1" parent="1">
          <mxGeometry x="490" y="180" width="70" height="20" as="geometry" />
        </mxCell>
        <mxCell id="7aWwnLWc4ZIoFV8uZZTq-31" style="edgeStyle=orthogonalEdgeStyle;rounded=0;orthogonalLoop=1;jettySize=auto;html=1;exitX=0.25;exitY=0;exitDx=0;exitDy=0;entryX=0;entryY=0;entryDx=0;entryDy=0;" edge="1" parent="1" source="7aWwnLWc4ZIoFV8uZZTq-11" target="7aWwnLWc4ZIoFV8uZZTq-23">
          <mxGeometry relative="1" as="geometry" />
        </mxCell>
        <mxCell id="7aWwnLWc4ZIoFV8uZZTq-32" value="6、返回查询结果" style="text;html=1;strokeColor=none;fillColor=none;align=center;verticalAlign=middle;whiteSpace=wrap;rounded=0;" vertex="1" parent="1">
          <mxGeometry x="150" y="100" width="110" height="20" as="geometry" />
        </mxCell>
      </root>
    </mxGraphModel>
  </diagram>
</mxfile>
